# xmcd
#
# Track frame offsets: 
#        150
#        22243
#        44354
#        70855
#        89859
#        118998
#        136515
#        161424
#        188786
#        209024
#        230970
#
# Disc length: 3391 seconds
#
# Revision: 0
# Processed by: cddbd v1.5.2PL0 Copyright (c) Steve Scherf et al.
# Submitted via: ExactAudioCopy v1.3
#
DISCID=a80d3d0b
DTITLE=Black King Crow - High Windows
DYEAR=2019
DGENRE=British Blues
TTITLE0=I Drank All The Gin In Paris
TTITLE1=Trailer Queen
TTITLE2=Outside In
TTITLE3=Every Road (Leads From Me)
TTITLE4=Devil's Door
TTITLE5=All Down But Nine
TTITLE6=Headlights Ad The Moon
TTITLE7=Don't Come Cryin'
TTITLE8=I Wish I Could Remember You (But I Don't)
TTITLE9=Thunderbird
TTITLE10=Always The Last To Leave
EXTD=
EXTT0=
EXTT1=
EXTT2=
EXTT3=
EXTT4=
EXTT5=
EXTT6=
EXTT7=
EXTT8=
EXTT9=
EXTT10=
PLAYORDER=
